<?xml version="1.0" standalone="no"?><!DOCTYPE svg PUBLIC "-//W3C//DTD SVG 1.1//EN" "http://www.w3.org/Graphics/SVG/1.1/DTD/svg11.dtd"><svg t="1717030212642" class="icon" viewBox="0 0 1024 1024" version="1.1" xmlns="http://www.w3.org/2000/svg" p-id="8294" width="256" height="256" xmlns:xlink="http://www.w3.org/1999/xlink"><path d="M853.333333 960c-4.266667 0-6.4 0-10.666666-2.133333l-330.666667-170.666667-330.666667 170.666667c-6.4 4.266667-14.933333 2.133333-21.333333 0-6.4-4.266667-10.666667-12.8-10.666667-19.2V128c0-36.266667 27.733333-64 64-64h597.333334c36.266667 0 64 27.733333 64 64v810.666667c0 6.4-4.266667 14.933333-10.666667 19.2-2.133333 2.133333-6.4 2.133333-10.666667 2.133333zM512 740.266667c4.266667 0 6.4 0 10.666667 2.133333L832 904.533333V128c0-12.8-8.533333-21.333333-21.333333-21.333333H213.333333c-12.8 0-21.333333 8.533333-21.333333 21.333333v776.533333l309.333333-160c4.266667-2.133333 6.4-4.266667 10.666667-4.266666z" fill="#ffffff" p-id="8295"></path><path d="M659.2 531.2h-298.666667c-12.8 0-21.333333-8.533333-21.333333-21.333333s8.533333-21.333333 21.333333-21.333334h298.666667c12.8 0 21.333333 8.533333 21.333333 21.333334s-8.533333 21.333333-21.333333 21.333333zM661.333333 362.666667H362.666667c-12.8 0-21.333333-8.533333-21.333334-21.333334s8.533333-21.333333 21.333334-21.333333h298.666666c12.8 0 21.333333 8.533333 21.333334 21.333333s-8.533333 21.333333-21.333334 21.333334z" fill="#ffffff" p-id="8296"></path></svg>