<?xml version="1.0" standalone="no"?><!DOCTYPE svg PUBLIC "-//W3C//DTD SVG 1.1//EN" "http://www.w3.org/Graphics/SVG/1.1/DTD/svg11.dtd"><svg t="1716972999436" class="icon" viewBox="0 0 1038 1024" version="1.1" xmlns="http://www.w3.org/2000/svg" p-id="5578" xmlns:xlink="http://www.w3.org/1999/xlink" width="16.21875" height="16"><path d="M240.59648 828.212736l540.722272 0 0-90.287807L240.59648 737.924929 240.59648 828.212736zM240.59648 707.987054l540.722272 0L781.318752 617.700269 240.59648 617.700269 240.59648 707.987054zM781.46489 16.691426 240.44932 16.691426c-132.817065 0-240.450342 107.662914-240.450342 240.450342L-0.001022 768.099895c0 132.78845 107.632256 240.450342 240.450342 240.450342l541.01557 0c132.817065 0 240.44932-107.662914 240.44932-240.450342L1021.914211 257.140746C1021.914211 124.354339 914.281955 16.691426 781.46489 16.691426zM931.745971 738.044497c0 99.589549-80.747952 180.337501-180.337501 180.337501L270.505741 918.381998c-99.590571 0-180.337501-80.747952-180.337501-180.337501L90.16824 287.198188c0-99.590571 80.74693-180.337501 180.337501-180.337501L751.40847 106.860687c99.589549 0 180.337501 80.74693 180.337501 180.337501L931.745971 738.044497zM452.457915 255.996168c13.736983-16.349074 34.108432-24.272213 61.024416-24.272213 23.09902 0 41.239563 5.429593 54.417542 17.316856 12.065081 10.920503 18.110907 26.299751 18.110907 46.113218 0 13.883121-5.460251 26.76678-15.909638 39.154796-3.872149 3.961058-9.918997 9.921041-18.696481 17.845201-29.674213 23.805184-48.341058 42.618167-55.50387 57.499728-7.162812 12.388016-10.450408 26.768824-10.450408 43.11892l0 11.417168 44.497523 0 0-11.417168c0-13.38339 3.317233-25.771406 10.450408-36.688843 5.51748-8.892964 13.736983-17.817609 25.301311-26.741231 24.184325-19.343372 39.566639-32.226009 45.054483-38.187014 13.179001-16.350096 20.340791-35.66281 20.340791-57.969823 0-29.763122-10.450408-53.068575-30.761562-69.916358-20.896729-17.845201-49.48768-26.2415-84.649737-26.2415-39.039316 0-69.799856 10.889845-92.341916 32.69917-21.425074 20.808841-32.403828 48.576105-32.403828 83.271134l43.967134 0C434.90499 288.723952 440.953882 269.880311 452.457915 255.996168zM531.620831 507.278104c-6.60483-5.92728-14.291899-8.393233-23.628387-8.393233-9.918997 0-17.610154 2.465953-23.65598 8.393233-6.574171 5.460251-9.863812 12.388016-9.863812 20.8395 0 8.396299 3.289641 15.350634 9.863812 21.311638 6.046848 5.457186 13.736983 8.423892 23.65598 8.423892 8.805077 0 17.023558-2.966706 23.628387-8.423892 6.045826-5.460251 9.333422-12.388016 9.333422-21.311638C540.953231 519.666119 537.666656 512.738355 531.620831 507.278104z" p-id="5579" fill="#ffffff"></path></svg>